<svg xmlns="http://www.w3.org/2000/svg" xmlns:xlink="http://www.w3.org/1999/xlink" width="500" zoomAndPan="magnify" viewBox="0 0 375 374.999991" height="500" preserveAspectRatio="xMidYMid meet" version="1.0"><defs><g/></defs><path fill="#ffeeee" d="M 37.050781 53.839844 L 205.074219 53.839844 C 210.449219 53.839844 215.609375 55.980469 219.410156 59.789062 C 223.214844 63.597656 225.351562 68.765625 225.351562 74.152344 L 225.351562 114.777344 C 225.351562 125.996094 216.273438 135.089844 205.074219 135.089844 L 37.050781 135.089844 C 25.851562 135.089844 16.773438 125.996094 16.773438 114.777344 L 16.773438 74.152344 C 16.773438 62.933594 25.851562 53.839844 37.050781 53.839844 " fill-opacity="1" fill-rule="nonzero"/><g fill="#ff5757" fill-opacity="1"><g transform="translate(38.784414, 112.840161)"><g><path d="M 25.84375 -28.15625 L 25.84375 0 L 13.6875 0 L 13.6875 -28.15625 L 1.265625 -28.15625 L 1.265625 -37.84375 L 38.21875 -37.84375 L 38.21875 -28.15625 Z M 25.84375 -28.15625 "/></g></g></g><g fill="#ff5757" fill-opacity="1"><g transform="translate(78.49153, 112.840161)"><g><path d="M 29.59375 0 L 29.59375 -14.359375 L 16.21875 -14.359375 L 16.21875 0 L 4.0625 0 L 4.0625 -37.84375 L 16.21875 -37.84375 L 16.21875 -24.03125 L 29.59375 -24.03125 L 29.59375 -37.84375 L 41.75 -37.84375 L 41.75 0 Z M 29.59375 0 "/></g></g></g><g fill="#ff5757" fill-opacity="1"><g transform="translate(124.303211, 112.840161)"><g><path d="M 4.625 0 L 4.625 -37.84375 L 16.78125 -37.84375 L 16.78125 0 Z M 4.625 0 "/></g></g></g><g fill="#ff5757" fill-opacity="1"><g transform="translate(145.696657, 112.840161)"><g><path d="M 19.96875 -38.5 C 24.800781 -38.5 28.773438 -37.515625 31.890625 -35.546875 C 35.015625 -33.585938 36.613281 -30.6875 36.6875 -26.84375 L 36.6875 -26.1875 L 25.296875 -26.1875 L 25.296875 -26.40625 C 25.296875 -27.5 24.890625 -28.410156 24.078125 -29.140625 C 23.273438 -29.878906 22.050781 -30.25 20.40625 -30.25 C 18.789062 -30.25 17.550781 -30.007812 16.6875 -29.53125 C 15.832031 -29.050781 15.40625 -28.46875 15.40625 -27.78125 C 15.40625 -26.789062 15.988281 -26.054688 17.15625 -25.578125 C 18.332031 -25.097656 20.222656 -24.601562 22.828125 -24.09375 C 25.867188 -23.46875 28.367188 -22.816406 30.328125 -22.140625 C 32.296875 -21.460938 34.007812 -20.351562 35.46875 -18.8125 C 36.9375 -17.269531 37.691406 -15.179688 37.734375 -12.546875 C 37.734375 -8.066406 36.21875 -4.742188 33.1875 -2.578125 C 30.164062 -0.421875 26.125 0.65625 21.0625 0.65625 C 15.15625 0.65625 10.5625 -0.332031 7.28125 -2.3125 C 4 -4.289062 2.359375 -7.789062 2.359375 -12.8125 L 13.859375 -12.8125 C 13.859375 -10.90625 14.351562 -9.628906 15.34375 -8.984375 C 16.332031 -8.347656 17.875 -8.03125 19.96875 -8.03125 C 21.507812 -8.03125 22.78125 -8.191406 23.78125 -8.515625 C 24.789062 -8.847656 25.296875 -9.53125 25.296875 -10.5625 C 25.296875 -11.476562 24.734375 -12.164062 23.609375 -12.625 C 22.492188 -13.082031 20.675781 -13.566406 18.15625 -14.078125 C 15.070312 -14.734375 12.519531 -15.421875 10.5 -16.140625 C 8.488281 -16.859375 6.726562 -18.039062 5.21875 -19.6875 C 3.71875 -21.34375 2.96875 -23.582031 2.96875 -26.40625 C 2.96875 -30.539062 4.570312 -33.585938 7.78125 -35.546875 C 10.988281 -37.515625 15.050781 -38.5 19.96875 -38.5 Z M 19.96875 -38.5 "/></g></g></g><g fill="#ff5757" fill-opacity="1"><g transform="translate(185.397685, 112.840161)"><g/></g></g><g fill="#808080" fill-opacity="1"><g transform="translate(152.153419, 208.618931)"><g><path d="M 39.015625 -19.921875 C 39.015625 -13.609375 37.4375 -8.617188 34.28125 -4.953125 C 31.132812 -1.285156 26.789062 0.546875 21.25 0.546875 C 15.71875 0.546875 11.375 -1.285156 8.21875 -4.953125 C 5.070312 -8.617188 3.5 -13.625 3.5 -19.96875 C 3.5 -26.289062 5.085938 -31.265625 8.265625 -34.890625 C 11.453125 -38.523438 15.796875 -40.34375 21.296875 -40.34375 C 26.835938 -40.34375 31.175781 -38.515625 34.3125 -34.859375 C 37.445312 -31.210938 39.015625 -26.234375 39.015625 -19.921875 Z M 6.515625 -19.921875 C 6.515625 -14.234375 7.78125 -9.832031 10.3125 -6.71875 C 12.851562 -3.613281 16.5 -2.0625 21.25 -2.0625 C 26.03125 -2.0625 29.679688 -3.597656 32.203125 -6.671875 C 34.734375 -9.753906 36 -14.171875 36 -19.921875 C 36 -25.640625 34.734375 -30.023438 32.203125 -33.078125 C 29.679688 -36.128906 26.046875 -37.65625 21.296875 -37.65625 C 16.566406 -37.65625 12.921875 -36.113281 10.359375 -33.03125 C 7.796875 -29.957031 6.515625 -25.585938 6.515625 -19.921875 Z M 6.515625 -19.921875 "/></g></g></g><g fill="#808080" fill-opacity="1"><g transform="translate(194.670663, 208.618931)"><g><path d="M 8.390625 -17.3125 L 8.390625 0 L 5.625 0 L 5.625 -39.71875 L 15.078125 -39.71875 C 20.003906 -39.71875 23.644531 -38.804688 26 -36.984375 C 28.351562 -35.171875 29.53125 -32.429688 29.53125 -28.765625 C 29.53125 -26.109375 28.828125 -23.863281 27.421875 -22.03125 C 26.023438 -20.207031 23.894531 -18.894531 21.03125 -18.09375 L 31.8125 0 L 28.5 0 L 18.25 -17.3125 Z M 8.390625 -19.703125 L 15.96875 -19.703125 C 19.320312 -19.703125 21.921875 -20.445312 23.765625 -21.9375 C 25.617188 -23.4375 26.546875 -25.640625 26.546875 -28.546875 C 26.546875 -31.578125 25.640625 -33.78125 23.828125 -35.15625 C 22.015625 -36.53125 19.0625 -37.21875 14.96875 -37.21875 L 8.390625 -37.21875 Z M 8.390625 -19.703125 "/></g></g></g><path stroke-linecap="butt" transform="matrix(2.608722, 0, 0, 2.608722, 149.693901, 146.158805)" fill="none" stroke-linejoin="miter" d="M 14.956378 15.36514 C 14.956378 17.781913 14.351437 19.69257 13.14305 21.098611 C 11.936162 22.504651 10.269577 23.20842 8.144794 23.20842 C 6.027498 23.20842 4.363908 22.504651 3.155522 21.098611 C 1.947136 19.69257 1.343691 17.774426 1.343691 15.345674 C 1.343691 12.921415 1.953125 11.013752 3.171993 9.621188 C 4.389364 8.230122 6.054451 7.53384 8.165757 7.53384 C 10.29054 7.53384 11.952633 8.233117 13.153532 9.63167 C 14.355929 11.031721 14.956378 12.942378 14.956378 15.36514 Z M 2.499669 15.36514 C 2.499669 17.545326 2.986318 19.231377 3.958118 20.421795 C 4.929918 21.613709 6.325477 22.20817 8.144794 22.20817 C 9.977588 22.20817 11.379136 21.618202 12.346444 20.438266 C 13.315249 19.256832 13.800401 17.56629 13.800401 15.36514 C 13.800401 13.171478 13.315249 11.489919 12.346444 10.318968 C 11.379136 9.149513 9.985075 8.564038 8.165757 8.564038 C 6.352429 8.564038 4.955373 9.155503 3.973092 10.335439 C 2.99081 11.515375 2.499669 13.192441 2.499669 15.36514 Z M 19.515902 16.36539 L 19.515902 23.000284 L 18.454259 23.000284 L 18.454259 7.773421 L 22.07792 7.773421 C 23.967615 7.773421 25.363173 8.12231 26.264597 8.82009 C 27.167517 9.517869 27.619726 10.567533 27.619726 11.970578 C 27.619726 12.991792 27.350197 13.852786 26.812638 14.55356 C 26.273581 15.254334 25.456011 15.757454 24.359928 16.06292 L 28.494196 23.000284 L 27.22292 23.000284 L 23.296788 16.36539 Z M 19.515902 15.448994 L 22.422318 15.448994 C 23.707071 15.448994 24.702829 15.162994 25.41109 14.589497 C 26.119351 14.017498 26.47423 13.171478 26.47423 12.054432 C 26.47423 10.893962 26.126838 10.050937 25.432053 9.522361 C 24.737268 8.995283 23.605249 8.731744 22.037491 8.731744 L 19.515902 8.731744 Z M 19.515902 15.448994 " stroke="#000000" stroke-width="0.799999" stroke-opacity="1" stroke-miterlimit="4"/><path fill="#ffeeee" d="M 166.753906 241.953125 L 338.132812 241.953125 C 349.351562 241.953125 358.445312 251.046875 358.445312 262.265625 L 358.445312 302.890625 C 358.445312 308.277344 356.304688 313.445312 352.496094 317.253906 C 348.6875 321.0625 343.519531 323.203125 338.132812 323.203125 L 166.753906 323.203125 C 155.539062 323.203125 146.445312 314.109375 146.445312 302.890625 L 146.445312 262.265625 C 146.445312 256.878906 148.585938 251.710938 152.394531 247.902344 C 156.203125 244.09375 161.367188 241.953125 166.753906 241.953125 " fill-opacity="1" fill-rule="nonzero"/><g fill="#5271ff" fill-opacity="1"><g transform="translate(168.4439, 300.954151)"><g><path d="M 25.84375 -28.15625 L 25.84375 0 L 13.6875 0 L 13.6875 -28.15625 L 1.265625 -28.15625 L 1.265625 -37.84375 L 38.21875 -37.84375 L 38.21875 -28.15625 Z M 25.84375 -28.15625 "/></g></g></g><g fill="#5271ff" fill-opacity="1"><g transform="translate(208.151016, 300.954151)"><g><path d="M 29.59375 0 L 29.59375 -14.359375 L 16.21875 -14.359375 L 16.21875 0 L 4.0625 0 L 4.0625 -37.84375 L 16.21875 -37.84375 L 16.21875 -24.03125 L 29.59375 -24.03125 L 29.59375 -37.84375 L 41.75 -37.84375 L 41.75 0 Z M 29.59375 0 "/></g></g></g><g fill="#5271ff" fill-opacity="1"><g transform="translate(253.962697, 300.954151)"><g><path d="M 29.421875 0 L 27.828125 -5.328125 L 14.578125 -5.328125 L 12.984375 0 L 0.546875 0 L 14.359375 -37.84375 L 28.484375 -37.84375 L 42.296875 0 Z M 17.109375 -13.8125 L 25.296875 -13.8125 L 21.34375 -27.28125 L 21.125 -27.28125 Z M 17.109375 -13.8125 "/></g></g></g><g fill="#5271ff" fill-opacity="1"><g transform="translate(296.749589, 300.954151)"><g><path d="M 25.84375 -28.15625 L 25.84375 0 L 13.6875 0 L 13.6875 -28.15625 L 1.265625 -28.15625 L 1.265625 -37.84375 L 38.21875 -37.84375 L 38.21875 -28.15625 Z M 25.84375 -28.15625 "/></g></g></g></svg>